<svg width="100" height="100" viewBox="0 0 100 100" fill="none" xmlns="http://www.w3.org/2000/svg">
<circle cx="50" cy="50" r="50" fill="#3AA8F8"/>
<path d="M76 66.0195C76 70.005 64.5833 78.0195 50.5 78.0195C36.4167 78.0195 25 70.005 25 66.0195C25 62.034 35.2662 71.0195 49.3494 71.0195C63.4327 71.0195 76 62.034 76 66.0195Z" fill="white"/>
<path d="M37.536 32.24C37.0673 31.3767 36.389 30.723 35.501 30.279C34.6377 29.8103 33.614 29.576 32.43 29.576C30.3827 29.576 28.7423 30.2543 27.509 31.611C26.2757 32.943 25.659 34.7313 25.659 36.976C25.659 39.3687 26.3003 41.2433 27.583 42.6C28.8903 43.932 30.6787 44.598 32.948 44.598C34.502 44.598 35.8093 44.2033 36.87 43.414C37.9553 42.6247 38.7447 41.49 39.238 40.01H31.209V35.348H44.973V41.231C44.5043 42.8097 43.7027 44.2773 42.568 45.634C41.458 46.9907 40.0397 48.0883 38.313 48.927C36.5863 49.7657 34.6377 50.185 32.467 50.185C29.9017 50.185 27.6077 49.63 25.585 48.52C23.587 47.3853 22.0207 45.819 20.886 43.821C19.776 41.823 19.221 39.5413 19.221 36.976C19.221 34.4107 19.776 32.129 20.886 30.131C22.0207 28.1083 23.587 26.542 25.585 25.432C27.583 24.2973 29.8647 23.73 32.43 23.73C35.538 23.73 38.1527 24.4823 40.274 25.987C42.42 27.4917 43.8383 29.576 44.529 32.24H37.536ZM75.0034 24.026V29.095H68.1214V50H61.7944V29.095H54.9124V24.026H75.0034Z" fill="white"/>
</svg>
